<svg xmlns="http://www.w3.org/2000/svg" xmlns:svg="http://www.w3.org/2000/svg" xmlns:xlink="http://www.w3.org/1999/xlink" id="svg3440" width="48" height="48" version="1.1"><defs id="defs3"><color-profile id="color-profile2" name="sRGB" xlink:href="/usr/share/color/icc/sRGB.icc"/><linearGradient id="linearGradient4345"><stop id="stop4347" offset="0" style="stop-color:#fff;stop-opacity:1"/><stop id="stop4349" offset="1" style="stop-color:#fff;stop-opacity:0"/></linearGradient><linearGradient id="linearGradient2973"><stop style="stop-color:#eeeeec;stop-opacity:1" id="stop2975" offset="0"/><stop style="stop-color:#eeeeec;stop-opacity:0" id="stop2977" offset="1"/></linearGradient><linearGradient id="linearGradient4126"><stop style="stop-color:#fff;stop-opacity:1" id="stop4128" offset="0"/><stop style="stop-color:#fff;stop-opacity:.16494845" id="stop4130" offset="1"/></linearGradient><linearGradient id="linearGradient4114"><stop style="stop-color:#000;stop-opacity:1" id="stop4116" offset="0"/><stop style="stop-color:#000;stop-opacity:0" id="stop4118" offset="1"/></linearGradient><linearGradient id="linearGradient3962"><stop style="stop-color:#d3e9ff;stop-opacity:1" id="stop3964" offset="0"/><stop style="stop-color:#d3e9ff;stop-opacity:1" id="stop4134" offset=".155"/><stop style="stop-color:#4074ae;stop-opacity:1" id="stop4346" offset=".75"/><stop style="stop-color:#36486c;stop-opacity:1" id="stop3966" offset="1"/></linearGradient><radialGradient id="radialGradient4019" cx="-10.089" cy="33.507" r="13.995" fx="-10.089" fy="33.507" gradientTransform="matrix(1,0,0,0.791446,-14.01786,-11.28667)" gradientUnits="userSpaceOnUse" xlink:href="#linearGradient3993"/><radialGradient id="radialGradient4004" cx="-10.323" cy="31.329" r="14.057" fx="-10.323" fy="31.329" gradientTransform="matrix(1,0,0,0.792374,-19.58761,2.818569)" gradientUnits="userSpaceOnUse" xlink:href="#linearGradient3993"/><radialGradient id="radialGradient3999" cx="-10.323" cy="31.329" r="14.057" fx="-10.323" fy="31.329" gradientTransform="matrix(1,0,0,0.792374,0,6.785475)" gradientUnits="userSpaceOnUse" xlink:href="#linearGradient3993"/><radialGradient id="radialGradient3943" cx="61.662" cy="24.241" r="13.995" fx="61.662" fy="24.241" gradientTransform="matrix(0.341185,-0.153831,1.08001,2.395374,-15.42222,-25.62103)" gradientUnits="userSpaceOnUse" xlink:href="#linearGradient1312"/><linearGradient id="linearGradient1312"><stop id="stop1314" offset="0" style="stop-color:#fff;stop-opacity:1"/><stop id="stop1316" offset="1" style="stop-color:#fff;stop-opacity:0"/></linearGradient><linearGradient id="linearGradient3993"><stop style="stop-color:#fff;stop-opacity:1" id="stop3995" offset="0"/><stop style="stop-color:#000;stop-opacity:0" id="stop3997" offset="1"/></linearGradient><radialGradient id="radialGradient3866" cx="-22.375" cy="18.5" r="14.335" fx="-22.375" fy="18.5" gradientTransform="matrix(1,0,0,1.140022,40.17678,1.347091)" gradientUnits="userSpaceOnUse" xlink:href="#linearGradient2973"/><radialGradient id="radialGradient5000" cx="15.116" cy="63.965" r="12.289" fx="15.116" fy="63.965" gradientTransform="scale(1.643990,0.608276)" gradientUnits="userSpaceOnUse" xlink:href="#linearGradient4114"/><linearGradient id="linearGradient4989"><stop id="stop4991" offset="0" style="stop-color:#47abff;stop-opacity:1"/><stop id="stop4993" offset=".36" style="stop-color:#53a6ff;stop-opacity:1"/><stop id="stop4995" offset=".795" style="stop-color:#286cbb;stop-opacity:1"/><stop id="stop4997" offset="1" style="stop-color:#003d87;stop-opacity:1"/></linearGradient><linearGradient id="linearGradient4977"><stop id="stop4979" offset="0" style="stop-color:#fff;stop-opacity:1"/><stop id="stop4981" offset="1" style="stop-color:#fff;stop-opacity:0"/></linearGradient><radialGradient id="radialGradient5878" cx="11.708" cy="36.528" r="14.337" fx="11.708" fy="36.528" gradientTransform="matrix(0.56833945,-0.14774444,0.12240592,0.69984003,9.8157812,6.7018745)" gradientUnits="userSpaceOnUse" xlink:href="#linearGradient4345"/><filter id="filter6406" style="color-interpolation-filters:sRGB" width="1.2" height="1.2" x="-.05" y="-.15"><feFlood id="feFlood6408" flood-color="#32336C" flood-opacity=".502" result="flood" stdDeviation=".01"/><feComposite id="feComposite6410" in="flood" in2="SourceGraphic" k1="8.14" k2="4.93" k3="5.59" k4="-7.24" operator="in" result="composite1"/><feGaussianBlur id="feGaussianBlur6412" in="composite" result="blur" stdDeviation=".2"/><feOffset id="feOffset6414" dx=".3" dy=".3" flood-opacity=".5" result="offset"/><feComposite id="feComposite6416" in="SourceGraphic" in2="offset" result="composite2"/></filter><filter style="color-interpolation-filters:sRGB" id="filter4258"><feFlood id="feFlood4260" flood-color="#C5CCDE" flood-opacity=".802" result="flood"/><feComposite id="feComposite4262" flood-opacity=".8" in="flood" in2="SourceGraphic" operator="in" result="composite1"/><feGaussianBlur id="feGaussianBlur4264" in="composite1" result="blur" stdDeviation=".5"/><feOffset id="feOffset4266" dx="0" dy="-.5" result="offset"/><feComposite id="feComposite4268" in="SourceGraphic" in2="offset" operator="over" result="composite2"/></filter><filter id="filter4290" style="color-interpolation-filters:sRGB"><feFlood id="feFlood4292" flood-color="#FFF" flood-opacity=".6" result="flood"/><feComposite id="feComposite4294" in="flood" in2="SourceGraphic" operator="in" result="composite1"/><feGaussianBlur id="feGaussianBlur4296" in="composite1" result="blur" stdDeviation="6.8"/><feOffset id="feOffset4298" dx=".7" dy="1.9" flood-opacity=".68" result="offset"/><feComposite id="feComposite4300" in="SourceGraphic" in2="offset" result="composite2"/></filter><radialGradient id="radialGradient4375" cx="19.016" cy="19.611" r="15.627" fx="19.016" fy="19.611" gradientTransform="matrix(-0.21582873,1.1173231,-1.0803619,-0.20155681,42.177326,-6.1234)" gradientUnits="userSpaceOnUse" xlink:href="#linearGradient4977"/></defs><metadata id="metadata4"/><g id="layer1" style="display:inline"><path style="fill:#4c90e8;fill-opacity:1;fill-rule:evenodd;stroke:#094491;stroke-width:3.19036889;stroke-miterlimit:4;stroke-dasharray:none;stroke-opacity:1" id="path2069" d="M 24.00916,2.8848679 35.921225,21.107868 c 7.631218,11.674181 -0.393962,24.296949 -11.919555,24.296949 -11.525593,0 -19.5637412,-12.627213 -11.925606,-24.293557 z"/></g><g id="layer5" style="display:inline"><path style="display:inline;fill:#094491;fill-opacity:1;fill-rule:evenodd;stroke-width:.43658349;stroke-miterlimit:4;stroke-dasharray:none;stroke-opacity:1" id="path2969" d="m 28.249173,24.076764 c -6.513399,-2.656088 -9.930764,4.129513 -8.844266,7.299777 2.363892,6.897492 11.278562,8.624272 17.861607,-2.864877 0,0 0.07021,1.386537 0.139797,2.046235 0.884013,8.376987 -6.162376,13.70953 -13.302295,13.605305 -7.139921,-0.104225 -9.320813,-2.876749 -11.424685,-6.068739 -3.4133569,-5.178732 -2.561398,-13.615464 2.027677,-17.561337 5.237731,-4.328395 11.004287,-2.017675 13.542165,3.543636 z"/></g><g style="display:none" id="g4327"><path id="path4329" d="m 24.811452,24.996951 c -6.049549,-2.467385 -7.648816,3.683738 -6.639688,6.628769 2.195546,6.407462 11.948502,7.605174 18.062738,-3.067723 0,0 0.11598,1.28803 0.180639,1.900859 0.82106,7.781844 -5.621926,12.735535 -12.253379,12.638715 -6.631454,-0.09682 -8.657036,-2.672368 -10.611083,-5.637583 -3.170275,-4.810809 -2.429788,-11.327408 1.78168,-14.840553 4.864733,-3.959831 8.798281,-0.09585 9.479093,2.377516 z" style="display:inline;fill:#99c3f9;fill-opacity:1;fill-rule:evenodd;stroke-width:.40552941;stroke-miterlimit:4;stroke-dasharray:none;stroke-opacity:1"/></g><g id="layer6" style="display:none"><path style="display:inline;fill:#99c3f9;fill-opacity:1;fill-rule:evenodd;stroke:#094491 icc-color(sRGB,.18046845,.27837034,.41960784);stroke-width:1.33399999;stroke-miterlimit:4;stroke-dasharray:none;stroke-opacity:1" id="path2969-6" d="m 23.761543,24.179576 c -6.481311,-1.72424 -6.932125,6.183803 -5.453851,8.969604 2.408248,4.538333 12.206251,5.377175 17.706883,-3.282742 0,0 0.07651,2.193563 0.02062,2.77892 -0.534334,5.596549 -6.848986,9.789262 -11.999526,9.621298 -5.243605,-0.170999 -8.282469,-2.549917 -10.154056,-5.379263 -3.036492,-4.590373 -2.048612,-10.811985 1.554101,-13.80496 4.248899,-3.646516 7.44994,-0.562347 8.325827,1.097143 z"/></g><g style="display:none" id="g4217"><path id="path4219" d="m 23.507553,23.925586 c -6.495438,-1.064032 -6.790118,6.421446 -5.149063,9.579179 2.304561,4.434459 10.903063,6.282759 17.3005,-2.825561 0,0 -0.02509,1.990372 -0.08098,2.575729 -0.534334,5.596549 -6.391805,8.925697 -11.542345,8.757733 -5.243605,-0.170999 -8.247979,-2.119778 -10.001662,-5.023677 -2.772156,-4.590373 -2.467304,-9.592836 0.487345,-12.585811 3.100966,-3.879425 7.831125,-2.714919 8.986201,-0.477592 z" style="display:inline;fill:#99c3f9;fill-opacity:1;fill-rule:evenodd;stroke:#094491 icc-color(sRGB,.18046845,.27837034,.41960784);stroke-width:2;stroke-miterlimit:4;stroke-dasharray:none;stroke-opacity:1"/></g><g id="layer3" style="display:none"><path style="fill:url(#radialGradient5878);fill-opacity:1;fill-rule:evenodd;stroke:none" id="path3868" d="m 23.55546,23.805666 c -6.490966,-1.345852 -7.700279,4.84717 -6.759909,8.059555 1.100923,3.760845 4.033145,7.507508 11.754513,5.50458 -3.268904,5.846892 -11.255492,4.570412 -13.940353,0.387138 -2.563055,-3.993493 -2.992402,-9.05746 -1.115519,-11.776277 4.049097,-6.655711 9.485026,-4.029293 10.061268,-2.174996 z"/></g><g style="display:inline" id="g4476"><path id="path4478" d="m 24.158349,21.568695 c -7.295351,0.177796 -8.680227,8.584045 -6.659444,12.185022 2.809336,5.006167 7.071815,5.968946 12.90485,4.121032 -3.330593,3.620896 -10.166138,4.579185 -14.809086,-0.592946 -3.194749,-3.558875 -3.473998,-8.525976 -1.256883,-12.674161 2.217115,-4.148189 6.638012,-5.301549 9.820563,-3.038947 z" style="fill:#83b8f9;fill-opacity:1;fill-rule:evenodd;stroke:none;stroke-width:1.07657671"/></g><g id="g4486" style="display:none"><path style="fill:#99c3f9;fill-opacity:1;fill-rule:evenodd;stroke:none" id="path4488" d="m 21.55277,22.974939 c -5.188765,1.005551 -6.173294,6.973638 -4.694095,10.155871 2.191227,4.714034 8.449957,8.07696 17.664862,0.691234 -5.828901,10.827975 -14.873199,7.043001 -17.313798,4.977307 -1.97159,-1.66873 -4.164846,-4.855384 -4.11832,-8.341257 0.09522,-7.134172 6.604293,-9.266569 8.461351,-7.483155 z"/></g><g id="layer2" style="display:none"><path style="display:inline;opacity:.68800001;fill:url(#radialGradient4375);fill-opacity:1;fill-rule:evenodd;stroke:none;stroke-width:1.01508224;stroke-miterlimit:4;stroke-dasharray:none;stroke-opacity:1" id="path4279" d="m 23.956644,1.939572 -11.98159,18.384686 c -3.9618093,5.166305 -3.6931007,11.439356 -2.4054307,15.8855 5.3079527,10.817522 14.5668877,9.659123 14.5668877,9.659123 0,0 6.868403,-0.005 11.475831,-5.120874 2.283123,-2.535051 5.325726,-9.801674 2.662706,-16.234991 -0.49634,-1.028711 -3.75284,-6.551522 -4.429455,-7.554788 z"/></g></svg>