<svg xmlns="http://www.w3.org/2000/svg" xmlns:svg="http://www.w3.org/2000/svg" id="svg16888" width="48" height="48" version="1.1"><metadata id="metadata16893"/><g id="layer2" style="display:inline"><path style="stroke-width:.084844;fill:red;fill-opacity:1" id="path1134" d="m 19.334232,31.418784 a 0.90623357,1.1438367 0 0 0 0.906233,-1.14384 V 25.31832 c 0,-12.210457 12.083111,-12.191395 12.083111,0 v 4.956624 a 0.90623357,1.1438367 0 0 0 0.906233,1.14384 h 11.471402 a 0.90623357,1.1438367 0 0 0 0.906234,-1.153375 c -0.0073,-2.039841 -0.04535,-3.841381 0,-5.080542 0,-14.35515 -10.283474,-23.5058431 -19.389614,-23.5058431 -9.106142,0 -19.257461,9.1506931 -19.257461,23.5153781 0.045378,1.220091 0.015034,3.145549 0,5.071007 a 0.90623357,1.1438367 0 0 0 0.9062351,1.153375 z"/><path style="stroke-width:.084844;fill:#515151;fill-opacity:.54381627" id="path1132" d="m 6.9490455,35.612845 v 7.63511 a 2.7187006,3.4315101 0 0 0 2.7186865,3.431514 h 7.85403 a 2.7187006,3.4315101 0 0 0 2.718703,-3.431514 V 35.62238 A 0.90623357,1.1438367 0 0 0 19.334232,34.478548 H 7.8552793 a 0.89792643,1.1333516 0 0 0 -0.9062338,1.134297 z"/><path style="stroke-width:.084844;fill:#515151;fill-opacity:.54381627" id="path267" d="m 33.224525,34.469013 h 11.484252 a 0.90623357,1.1438367 0 0 1 0.906219,1.143832 v 7.625583 a 2.7187006,3.4315101 0 0 1 -2.718688,3.431506 h -7.85403 a 2.7187006,3.4315101 0 0 1 -2.718702,-3.431506 v -7.625583 a 0.89792643,1.1333516 0 0 1 0.900949,-1.143832 z"/></g><g id="layer1" style="display:none"><rect style="opacity:1;fill:none;fill-opacity:1;stroke:none;stroke-width:7.09866;stroke-linecap:round;stroke-linejoin:round;stroke-miterlimit:4;stroke-dasharray:none;stroke-opacity:1" id="rect3157" width="30.976" height="30.976" x="18.097" y="17.13"/><rect style="fill:#000;fill-opacity:1;stroke:none;stroke-width:5.16267;stroke-linecap:round;stroke-linejoin:round;stroke-miterlimit:4;stroke-dasharray:none;stroke-opacity:1" id="rect11064" width="15.488" height="13.552" x="21.324" y="31.327" ry="1.958"/><rect style="fill:#fff;fill-opacity:1;stroke:none;stroke-width:5.16267;stroke-linecap:round;stroke-linejoin:round;stroke-miterlimit:4;stroke-dasharray:none;stroke-opacity:1" id="rect11066" width="11.616" height="9.68" x="23.26" y="33.263" ry="0"/><path style="fill:none;fill-rule:evenodd;stroke:#000;stroke-width:1.936;stroke-linecap:butt;stroke-linejoin:miter;stroke-miterlimit:4;stroke-dasharray:none;stroke-opacity:1" id="path12037" d="m 25.195958,36.167447 h 7.743998"/><path id="path13008" d="m 25.195958,40.039446 h 7.743998" style="fill:none;fill-rule:evenodd;stroke:#000;stroke-width:1.936;stroke-linecap:butt;stroke-linejoin:miter;stroke-miterlimit:4;stroke-dasharray:none;stroke-opacity:1"/><rect style="fill:#000;fill-opacity:1;stroke:none;stroke-width:5.16267;stroke-linecap:round;stroke-linejoin:round;stroke-miterlimit:4;stroke-dasharray:none;stroke-opacity:1" id="rect16900" width="15.488" height="13.552" x="30.359" y="20.357" ry="2.045"/><rect style="fill:#fff;fill-opacity:1;stroke:none;stroke-width:5.16267;stroke-linecap:round;stroke-linejoin:round;stroke-miterlimit:4;stroke-dasharray:none;stroke-opacity:1" id="rect16902" width="11.616" height="9.68" x="32.295" y="22.293" ry="0"/><path style="fill:none;fill-rule:evenodd;stroke:#000;stroke-width:1.936;stroke-linecap:butt;stroke-linejoin:miter;stroke-miterlimit:4;stroke-dasharray:none;stroke-opacity:1" id="path16904" d="m 34.230623,25.196783 h 7.743998"/><path id="path16906" d="m 34.230623,29.068782 h 7.743998" style="fill:none;fill-rule:evenodd;stroke:#000;stroke-width:1.936;stroke-linecap:butt;stroke-linejoin:miter;stroke-miterlimit:4;stroke-dasharray:none;stroke-opacity:1"/></g></svg>