<svg xmlns="http://www.w3.org/2000/svg" xmlns:svg="http://www.w3.org/2000/svg" id="svg2517" width="128" height="128" version="1.1"><metadata id="metadata2522"/><g id="layer1" transform="translate(0,-924.36218)"><path style="opacity:1;fill:#4c90e8;fill-opacity:1;stroke:#000;stroke-width:4.088;stroke-linecap:round;stroke-linejoin:round;stroke-miterlimit:4;stroke-dasharray:none;stroke-opacity:1" id="rect2634" d="m 79.742286,929.51964 c -14.206752,13.93715 -28.471266,27.83834 -42.678018,41.77545 7.643855,0.014 15.306814,-0.0139 22.950711,0 0,16.50389 0,33.00771 0,49.51151 13.581299,0 27.16264,0 40.743951,0 0,-16.4609 0,-32.92164 0,-49.38258 7.04267,0.0129 14.10294,-0.0129 21.14561,0 -14.04989,-13.98881 -28.112421,-27.91554 -42.162254,-41.90438 z"/><path style="opacity:1;fill:#16c816;fill-opacity:1;stroke:#000;stroke-width:4.088;stroke-linecap:round;stroke-linejoin:round;stroke-miterlimit:4;stroke-dasharray:none;stroke-opacity:1" id="path2528" d="m 48.980975,1047.5605 c -14.206752,-13.9372 -28.471263,-27.8383 -42.6780126,-41.7755 7.6438566,-0.014 15.3068146,0.014 22.9507156,0 0,-16.5037 0,-33.00759 0,-49.51147 13.581288,0 27.162629,0 40.74397,0 0,16.46089 0,32.92179 0,49.38257 7.042653,-0.014 14.102929,0.013 21.145603,0 -14.049885,13.9888 -28.112433,27.9156 -42.162276,41.9044 z"/></g></svg>